<?xml version="1.0" encoding="utf-8"?>
<!-- Generator: Adobe Illustrator 22.0.0, SVG Export Plug-In . SVG Version: 6.00 Build 0)  -->
<svg version="1.1" id="Layer_1" xmlns="http://www.w3.org/2000/svg" xmlns:xlink="http://www.w3.org/1999/xlink" x="0px" y="0px"
	 viewBox="0 0 512 512" style="enable-background:new 0 0 512 512;" xml:space="preserve">
<g>
	<g>
		<g>
			<path d="M327.3,287.4h7.5v7.5h-7.5V287.4z"/>
		</g>
		<g>
			<path d="M177.3,287.4h7.5v7.5h-7.5V287.4z"/>
		</g>
	</g>
	<path d="M212.8,291.1c0,23.8,19.4,43.3,43.3,43.3s43.3-19.4,43.3-43.3s-19.4-43.3-43.3-43.3S212.8,267.3,212.8,291.1z M291.8,291.1
		c0,19.7-16,35.8-35.8,35.8s-35.8-16-35.8-35.8s16-35.8,35.8-35.8S291.8,271.4,291.8,291.1z"/>
	<path d="M252.3,261.9v2.7c-6.7,1.7-11.6,7.7-11.6,14.9v1.9c0,6.8,5.1,12.5,11.6,13.4v14.9c-2.5-1.3-4.1-3.9-4.1-7.1h-7.5
		c0,7.4,5,13.4,11.6,15.1v2.7h7.5v-2.7c6.7-1.7,11.6-7.7,11.6-14.9v-1.9c0-6.8-5.1-12.5-11.6-13.4v-14.9c2.5,1.3,4.1,3.9,4.1,7.1
		h7.5c0-7.4-5-13.4-11.6-15.1v-2.7L252.3,261.9L252.3,261.9z M252.3,287.1c-2.4-0.8-4.1-3-4.1-5.7v-1.9c0-3,1.7-5.6,4.1-6.9V287.1z
		 M263.9,300.9v1.9c0,3-1.7,5.6-4.1,6.9v-14.5C262.1,296,263.9,298.2,263.9,300.9z"/>
	<path d="M128,216.9v148.5h41.7v-7.5h-34.2V224.4h241v133.5H177.2v7.5H384V216.9H128z"/>
	<path d="M161,350.4H351l-0.4-4.1c-0.8-8.6,6-16.1,14.7-16.1h3.8v-78h-3.8c-8.1,0-14.8-6.6-14.8-14.8c0-0.9,0-1,0.5-5.5h-38.9v7.5
		h31c0.9,10.1,8.6,18.3,18.4,19.9V323c-9.8,1.7-17.5,9.8-18.4,19.9H168.9c-0.9-10.1-8.6-18.3-18.4-19.9v-63.6
		c9.8-1.7,17.5-9.8,18.4-19.9h135.7v-7.5H161l0.4,4.1c0.8,8.6-6,16.1-14.7,16.1H143v78h3.8c8.1,0,14.8,6.6,14.8,14.8
		C161.5,345.8,161.5,345.9,161,350.4L161,350.4z"/>
	<path d="M313.7,180.2l-1.8-3.7l-43.2,26l3.9,6.4L309,187c6,8.3,16.8,11.2,26,7.6l7.8,13l6.4-3.9l-11.5-19.2l-3.2,1.9
		C327.1,191,317.4,188,313.7,180.2L313.7,180.2z"/>
	<path d="M366.8,203.7l-34.3-57.1l-93,55.8l3.9,6.4l86.6-52l30.4,50.7L366.8,203.7z"/>
</g>
</svg>
