<?xml version="1.0" encoding="utf-8"?>
<!-- Generator: Adobe Illustrator 22.0.0, SVG Export Plug-In . SVG Version: 6.00 Build 0)  -->
<svg version="1.1" id="Layer_1" xmlns="http://www.w3.org/2000/svg" xmlns:xlink="http://www.w3.org/1999/xlink" x="0px" y="0px"
	 viewBox="0 0 512 512" style="enable-background:new 0 0 512 512;" xml:space="preserve">
<g>
	<path d="M256,384c-34.2,0-66.3-13.3-90.5-37.5C141.3,322.3,128,290.2,128,256s13.3-66.3,37.5-90.5S221.8,128,256,128
		s66.3,13.3,90.5,37.5c24.2,24.2,37.5,56.3,37.5,90.5s-13.3,66.3-37.5,90.5C322.3,370.7,290.2,384,256,384L256,384z M256,144
		c-61.8,0-112,50.2-112,112s50.2,112,112,112s112-50.2,112-112S317.8,144,256,144z"/>
	<path d="M256,248c-11,0-20-9-20-20s9-20,20-20c11,0,20,9,20,20c0,4.4,3.6,8,8,8c4.4,0,8-3.6,8-8c0-17.1-12-31.4-28-35.1V184
		c0-4.4-3.6-8-8-8c-4.4,0-8,3.6-8,8v8.9c-16,3.6-28,18-28,35.1c0,19.9,16.1,36,36,36c11,0,20,9,20,20c0,11-9,20-20,20
		c-11,0-20-9-20-20c0-4.4-3.6-8-8-8s-8,3.6-8,8c0,17.1,12,31.4,28,35.1v8.9c0,4.4,3.6,8,8,8c4.4,0,8-3.6,8-8v-8.9
		c16-3.6,28-18,28-35.1C292,264.1,275.9,248,256,248z"/>
</g>
</svg>
