<?xml version="1.0" encoding="utf-8"?>
<!-- Generator: Adobe Illustrator 22.0.0, SVG Export Plug-In . SVG Version: 6.00 Build 0)  -->
<svg version="1.1" id="Layer_1" xmlns="http://www.w3.org/2000/svg" xmlns:xlink="http://www.w3.org/1999/xlink" x="0px" y="0px"
	 viewBox="0 0 496 496" style="enable-background:new 0 0 496 496;" xml:space="preserve">
<style type="text/css">
	.st0{fill:#FFFFFF;}
	.st1{fill:#005ADE;}
	.st2{font-family:'MyriadPro-Regular';}
	.st3{font-size:34.8915px;}
</style>
<rect class="st0" width="496" height="496"/>
<rect x="150" y="166.3" class="st1" width="189" height="101.1"/>
<path d="M350,261.2V215c-0.1-47.8-22.6-92.8-60.8-121.6L286,91V68.8c4.9-2.8,8-8.1,8-13.8V23c0-8.8-7.2-16-16-16h-64
	c-8.8,0-16,7.2-16,16v32c0,5.7,3.1,10.9,8,13.8V91l-3.2,2.4c-38.2,28.8-60.7,73.8-60.8,121.6v46.2c0.1,16.2,4.7,32.1,13.1,45.9
	c6.7,10.8,10.5,23.2,10.9,35.9c-0.8,10.1-3.8,20-8.8,28.8c-10.2,20.6-15.4,43.4-15.2,66.4v8.8c0,22.1,17.9,40,40,40h128
	c22.1,0,40-17.9,40-40v-8.8c0.1-23-5.1-45.7-15.2-66.4c-5-8.8-8-18.7-8.8-28.8c0.4-12.7,4.1-25.1,10.9-35.9
	C345.3,293.3,349.9,277.4,350,261.2z M214,23h64v32h-64V23z M212.4,106.2l6.4-4.8c2-1.5,3.2-3.9,3.2-6.4V71h48v24
	c0,2.5,1.2,4.9,3.2,6.4l6.4,4.8c15.9,12,28.9,27.2,38.2,44.8H174.2C183.5,133.4,196.5,118.2,212.4,106.2z M158,215
	c0-16.4,3-32.7,8.9-48h158.3c5.8,15.3,8.8,31.6,8.9,48v46.2c0,0.6-0.1,1.2-0.1,1.8H158.1c0-0.6-0.1-1.2-0.1-1.8V215z M320.5,379
	c9,18.4,13.7,38.7,13.5,59.2v8.8c0,13.3-10.7,24-24,24H182c-13.3,0-24-10.7-24-24v-8.8c-0.1-20.5,4.5-40.8,13.5-59.2
	c6.2-11,9.8-23.4,10.5-36c-0.3-15.6-4.9-30.9-13.1-44.1c-3.7-6.2-6.5-12.9-8.4-19.9h171.1c-1.9,7-4.7,13.7-8.4,19.9
	c-8.3,13.3-12.8,28.5-13.1,44.1C310.7,355.6,314.3,368,320.5,379z"/>
<text transform="matrix(1 0 0 1 207.001 220.5)" class="st0 st2 st3">Pepsi</text>
</svg>
